<svg xmlns="http://www.w3.org/2000/svg" style="display:none">
<symbol id="i-search" viewBox="0 0 24 24" fill="none" stroke="currentColor" stroke-width="2" stroke-linecap="round" stroke-linejoin="round"><path d="m21 21-4.34-4.34" />
  <circle cx="11" cy="11" r="8" /></symbol>
<symbol id="i-panel-left-close" viewBox="0 0 24 24" fill="none" stroke="currentColor" stroke-width="2" stroke-linecap="round" stroke-linejoin="round"><rect width="18" height="18" x="3" y="3" rx="2" />
  <path d="M9 3v18" />
  <path d="m16 15-3-3 3-3" /></symbol>
<symbol id="i-panel-left-open" viewBox="0 0 24 24" fill="none" stroke="currentColor" stroke-width="2" stroke-linecap="round" stroke-linejoin="round"><rect width="18" height="18" x="3" y="3" rx="2" />
  <path d="M9 3v18" />
  <path d="m14 9 3 3-3 3" /></symbol>
<symbol id="i-square-pen" viewBox="0 0 24 24" fill="none" stroke="currentColor" stroke-width="2" stroke-linecap="round" stroke-linejoin="round"><path d="M12 3H5a2 2 0 0 0-2 2v14a2 2 0 0 0 2 2h14a2 2 0 0 0 2-2v-7" />
  <path d="M18.375 2.625a1 1 0 0 1 3 3l-9.013 9.014a2 2 0 0 1-.853.505l-2.873.84a.5.5 0 0 1-.62-.62l.84-2.873a2 2 0 0 1 .506-.852z" /></symbol>
<symbol id="i-file-text" viewBox="0 0 24 24" fill="none" stroke="currentColor" stroke-width="2" stroke-linecap="round" stroke-linejoin="round"><path d="M6 22a2 2 0 0 1-2-2V4a2 2 0 0 1 2-2h8a2.4 2.4 0 0 1 1.704.706l3.588 3.588A2.4 2.4 0 0 1 20 8v12a2 2 0 0 1-2 2z" />
  <path d="M14 2v5a1 1 0 0 0 1 1h5" />
  <path d="M10 9H8" />
  <path d="M16 13H8" />
  <path d="M16 17H8" /></symbol>
<symbol id="i-briefcase" viewBox="0 0 24 24" fill="none" stroke="currentColor" stroke-width="2" stroke-linecap="round" stroke-linejoin="round"><path d="M16 20V4a2 2 0 0 0-2-2h-4a2 2 0 0 0-2 2v16" />
  <rect width="20" height="14" x="2" y="6" rx="2" /></symbol>
<symbol id="i-archive" viewBox="0 0 24 24" fill="none" stroke="currentColor" stroke-width="2" stroke-linecap="round" stroke-linejoin="round"><rect width="20" height="5" x="2" y="3" rx="1" />
  <path d="M4 8v11a2 2 0 0 0 2 2h12a2 2 0 0 0 2-2V8" />
  <path d="M10 12h4" /></symbol>
<symbol id="i-mic" viewBox="0 0 24 24" fill="none" stroke="currentColor" stroke-width="2" stroke-linecap="round" stroke-linejoin="round"><path d="M12 19v3" />
  <path d="M19 10v2a7 7 0 0 1-14 0v-2" />
  <rect x="9" y="2" width="6" height="13" rx="3" /></symbol>
<symbol id="i-calendar" viewBox="0 0 24 24" fill="none" stroke="currentColor" stroke-width="2" stroke-linecap="round" stroke-linejoin="round"><path d="M8 2v3" />
  <path d="M16 2v3" />
  <rect x="3" y="3" width="18" height="18" rx="2" />
  <path d="M3 9h18" /></symbol>
<symbol id="i-settings" viewBox="0 0 24 24" fill="none" stroke="currentColor" stroke-width="2" stroke-linecap="round" stroke-linejoin="round"><path d="M9.671 4.136a2.34 2.34 0 0 1 4.659 0 2.34 2.34 0 0 0 3.319 1.915 2.34 2.34 0 0 1 2.33 4.033 2.34 2.34 0 0 0 0 3.831 2.34 2.34 0 0 1-2.33 4.033 2.34 2.34 0 0 0-3.319 1.915 2.34 2.34 0 0 1-4.659 0 2.34 2.34 0 0 0-3.32-1.915 2.34 2.34 0 0 1-2.33-4.033 2.34 2.34 0 0 0 0-3.831A2.34 2.34 0 0 1 6.35 6.051a2.34 2.34 0 0 0 3.319-1.915" />
  <circle cx="12" cy="12" r="3" /></symbol>
<symbol id="i-corner-down-left" viewBox="0 0 24 24" fill="none" stroke="currentColor" stroke-width="2" stroke-linecap="round" stroke-linejoin="round"><path d="M20 4v7a4 4 0 0 1-4 4H4" />
  <path d="m9 10-5 5 5 5" /></symbol>
<symbol id="i-send-horizontal" viewBox="0 0 24 24" fill="none" stroke="currentColor" stroke-width="2" stroke-linecap="round" stroke-linejoin="round"><path d="M3.714 3.048a.498.498 0 0 0-.683.627l2.843 7.627a2 2 0 0 1 0 1.396l-2.842 7.627a.498.498 0 0 0 .682.627l18-8.5a.5.5 0 0 0 0-.904z" />
  <path d="M6 12h16" /></symbol>
<symbol id="i-sliders-horizontal" viewBox="0 0 24 24" fill="none" stroke="currentColor" stroke-width="2" stroke-linecap="round" stroke-linejoin="round"><path d="M10 5H3" />
  <path d="M12 19H3" />
  <path d="M14 3v4" />
  <path d="M16 17v4" />
  <path d="M21 12h-9" />
  <path d="M21 19h-5" />
  <path d="M21 5h-7" />
  <path d="M8 10v4" />
  <path d="M8 12H3" /></symbol>
<symbol id="i-paperclip" viewBox="0 0 24 24" fill="none" stroke="currentColor" stroke-width="2" stroke-linecap="round" stroke-linejoin="round"><path d="m16 6-8.414 8.586a2 2 0 0 0 2.829 2.829l8.414-8.586a4 4 0 1 0-5.657-5.657l-8.379 8.551a6 6 0 1 0 8.485 8.485l8.379-8.551" /></symbol>
<symbol id="i-link-2" viewBox="0 0 24 24" fill="none" stroke="currentColor" stroke-width="2" stroke-linecap="round" stroke-linejoin="round"><path d="M9 17H7A5 5 0 0 1 7 7h2" />
  <path d="M15 7h2a5 5 0 1 1 0 10h-2" />
  <line x1="8" x2="16" y1="12" y2="12" /></symbol>
<symbol id="i-badge-check" viewBox="0 0 24 24" fill="none" stroke="currentColor" stroke-width="2" stroke-linecap="round" stroke-linejoin="round"><path d="M3.85 8.62a4 4 0 0 1 4.78-4.77 4 4 0 0 1 6.74 0 4 4 0 0 1 4.78 4.78 4 4 0 0 1 0 6.74 4 4 0 0 1-4.77 4.78 4 4 0 0 1-6.75 0 4 4 0 0 1-4.78-4.77 4 4 0 0 1 0-6.76Z" />
  <path d="m16 9-5.5 5.5L8 12" /></symbol>
<symbol id="i-loader-circle" viewBox="0 0 24 24" fill="none" stroke="currentColor" stroke-width="2" stroke-linecap="round" stroke-linejoin="round"><path d="M21 12a9 9 0 1 1-6.219-8.56" /></symbol>
<symbol id="i-check" viewBox="0 0 24 24" fill="none" stroke="currentColor" stroke-width="2" stroke-linecap="round" stroke-linejoin="round"><path d="M20 6 9 17l-5-5" /></symbol>
<symbol id="i-x" viewBox="0 0 24 24" fill="none" stroke="currentColor" stroke-width="2" stroke-linecap="round" stroke-linejoin="round"><path d="M18 6 6 18" />
  <path d="m6 6 12 12" /></symbol>
<symbol id="i-ellipsis" viewBox="0 0 24 24" fill="none" stroke="currentColor" stroke-width="2" stroke-linecap="round" stroke-linejoin="round"><circle cx="12" cy="12" r="1" />
  <circle cx="19" cy="12" r="1" />
  <circle cx="5" cy="12" r="1" /></symbol>
<symbol id="i-trash-2" viewBox="0 0 24 24" fill="none" stroke="currentColor" stroke-width="2" stroke-linecap="round" stroke-linejoin="round"><path d="M10 11v6" />
  <path d="M14 11v6" />
  <path d="M19 6v14a2 2 0 0 1-2 2H7a2 2 0 0 1-2-2V6" />
  <path d="M3 6h18" />
  <path d="M8 6V4a2 2 0 0 1 2-2h4a2 2 0 0 1 2 2v2" /></symbol>
<symbol id="i-file-down" viewBox="0 0 24 24" fill="none" stroke="currentColor" stroke-width="2" stroke-linecap="round" stroke-linejoin="round"><path d="M6 22a2 2 0 0 1-2-2V4a2 2 0 0 1 2-2h8a2.4 2.4 0 0 1 1.704.706l3.588 3.588A2.4 2.4 0 0 1 20 8v12a2 2 0 0 1-2 2z" />
  <path d="M14 2v5a1 1 0 0 0 1 1h5" />
  <path d="M12 18v-6" />
  <path d="m9 15 3 3 3-3" /></symbol>
<symbol id="i-pencil" viewBox="0 0 24 24" fill="none" stroke="currentColor" stroke-width="2" stroke-linecap="round" stroke-linejoin="round"><path d="M21.174 6.812a1 1 0 0 0-3.986-3.987L3.842 16.174a2 2 0 0 0-.5.83l-1.321 4.352a.5.5 0 0 0 .623.622l4.353-1.32a2 2 0 0 0 .83-.497z" />
  <path d="m15 5 4 4" /></symbol>
<symbol id="i-plus" viewBox="0 0 24 24" fill="none" stroke="currentColor" stroke-width="2" stroke-linecap="round" stroke-linejoin="round"><path d="M5 12h14" />
  <path d="M12 5v14" /></symbol>
<symbol id="i-circle-alert" viewBox="0 0 24 24" fill="none" stroke="currentColor" stroke-width="2" stroke-linecap="round" stroke-linejoin="round"><circle cx="12" cy="12" r="10" />
  <line x1="12" x2="12" y1="8" y2="12" />
  <line x1="12" x2="12.01" y1="16" y2="16" /></symbol>
<symbol id="i-inbox" viewBox="0 0 24 24" fill="none" stroke="currentColor" stroke-width="2" stroke-linecap="round" stroke-linejoin="round"><polyline points="22 12 16 12 14 15 10 15 8 12 2 12" />
  <path d="M5.45 5.11 2 12v6a2 2 0 0 0 2 2h16a2 2 0 0 0 2-2v-6l-3.45-6.89A2 2 0 0 0 16.76 4H7.24a2 2 0 0 0-1.79 1.11z" /></symbol>
</svg>